<svg xmlns="http://www.w3.org/2000/svg" width="288" height="51.207" viewBox="0 0 288 51.207"><defs><style>.a{fill:#fff;}</style></defs><path class="a" d="M18.528,50.585,0,.7H4.174l9.671,26.062c2.749,7.533,5.9,15.881,7.024,20.055h.1c1.12-3.665,4.479-12.522,7.228-19.852L38.278.6H42.35L23.109,50.483H18.528Z" transform="translate(0 0.011)"/><path class="a" d="M49.9.7h3.869V22.486H83.7V.7h3.869V50.583H83.7V26.049H53.769V50.685H49.9Z" transform="translate(0.9 0.013)"/><path class="a" d="M105.169.7V50.583H101.3V.7h3.869Z" transform="translate(1.826 0.013)"/><path class="a" d="M156.519,37.26c-2.341,7.941-8.246,13.947-18.732,13.947-14.354,0-21.888-11.4-21.888-25.451C115.8,12.216,123.23,0,137.788,0c10.791,0,17.1,6.006,18.732,14.354h-3.868c-2.24-6.515-6.515-10.791-15.067-10.791-12.42,0-17.612,11.3-17.612,22.091,0,10.689,5.09,21.989,17.917,21.989,8.144,0,12.216-4.174,14.761-10.384h3.868Z" transform="translate(2.089)"/><g transform="translate(182.227 0.102)"><path class="a" d="M189.995.2,184.9,11.6h-.814L179,.2h.916L184.5,10.482,189.078.2h.916Z" transform="translate(-179 -0.098)"/><path class="a" d="M200.864.2V11.6h-.814v-5.4h-7.635v5.4H191.6V.2h.814V5.494h7.635V.2Z" transform="translate(-178.773 -0.098)"/><path class="a" d="M212.439,10.889V11.6H204.6V.2h7.635V.913h-6.821V5.392h6.108V6.1h-6.108v4.683h7.024Z" transform="translate(-178.538 -0.098)"/><path class="a" d="M215.3.2h.814V10.889h6.515V11.6H215.2V.2Z" transform="translate(-178.347 -0.098)"/><path class="a" d="M225.131,11.3a4.256,4.256,0,0,1-1.731-1.12l.407-.611a3.727,3.727,0,0,0,1.629,1.018,5.316,5.316,0,0,0,2.138.407,3.914,3.914,0,0,0,2.443-.611,1.978,1.978,0,0,0,.814-1.629,1.623,1.623,0,0,0-.407-1.222,3.033,3.033,0,0,0-1.12-.713,12.417,12.417,0,0,0-1.731-.509,17,17,0,0,1-2.036-.611,3.874,3.874,0,0,1-1.323-.916,2.59,2.59,0,0,1-.509-1.629,2.873,2.873,0,0,1,.407-1.527,2.9,2.9,0,0,1,1.323-1.12A4.9,4.9,0,0,1,227.676.1a5.765,5.765,0,0,1,1.832.305,7.88,7.88,0,0,1,1.629.713l-.305.713a5.32,5.32,0,0,0-1.527-.713,4.483,4.483,0,0,0-1.629-.2,4.342,4.342,0,0,0-2.443.611,1.852,1.852,0,0,0-.814,1.629,1.623,1.623,0,0,0,.407,1.222,3.032,3.032,0,0,0,1.12.713,12.418,12.418,0,0,0,1.731.509,17,17,0,0,1,2.036.611,3.874,3.874,0,0,1,1.323.916,2.59,2.59,0,0,1,.509,1.629,2.873,2.873,0,0,1-.407,1.527,3.328,3.328,0,0,1-1.425,1.12,5.179,5.179,0,0,1-2.24.407A19.255,19.255,0,0,1,225.131,11.3Z" transform="translate(-178.2 -0.1)"/><path class="a" d="M234.3.2h.814V11.6H234.3Z" transform="translate(-178.003 -0.098)"/><path class="a" d="M180.8,19.4h.814V30.8H180.8Z" transform="translate(-178.968 0.248)"/><path class="a" d="M194.864,19.4V30.8h-.713l-7.737-9.875V30.8H185.6V19.4h.713l7.737,9.875V19.4h.814Z" transform="translate(-178.881 0.248)"/><path class="a" d="M200.772,20.113H196.7V19.4h9.06v.713h-4.072V30.8h-.814V20.113Z" transform="translate(-178.681 0.248)"/><path class="a" d="M215.439,30.089V30.8H207.6V19.4h7.635v.713h-6.821v4.479h6.108V25.3h-6.108v4.683h7.024Z" transform="translate(-178.484 0.248)"/><path class="a" d="M226.364,25.1h.814v4.276a5.542,5.542,0,0,1-1.832,1.12,7.941,7.941,0,0,1-2.24.407,6.148,6.148,0,0,1-3.054-.713,5.712,5.712,0,0,1-2.138-7.941,5.154,5.154,0,0,1,2.138-2.036,6.148,6.148,0,0,1,3.054-.713,5.973,5.973,0,0,1,2.341.407,5.542,5.542,0,0,1,1.832,1.12l-.509.509a3.985,3.985,0,0,0-1.629-1.018,5.927,5.927,0,0,0-1.934-.305,5.636,5.636,0,0,0-2.647.611,4,4,0,0,0-1.832,1.832,5.628,5.628,0,0,0-.713,2.545,4.373,4.373,0,0,0,.713,2.545,4.535,4.535,0,0,0,1.832,1.832,5.636,5.636,0,0,0,2.647.611,4.987,4.987,0,0,0,3.258-1.018V25.1Z" transform="translate(-178.313 0.25)"/><path class="a" d="M238.541,30.8l-2.749-3.767a4.565,4.565,0,0,1-1.12.1h-3.258V30.9H230.6V19.4h4.072a4.913,4.913,0,0,1,3.359,1.018,3.552,3.552,0,0,1,1.222,2.85,3.29,3.29,0,0,1-.713,2.24,4.39,4.39,0,0,1-1.934,1.323l2.85,3.97h-.916Zm-3.868-4.479a4.213,4.213,0,0,0,2.749-.814,2.843,2.843,0,0,0,.916-2.24,2.843,2.843,0,0,0-.916-2.24,4.213,4.213,0,0,0-2.749-.814h-3.258v6.21h3.258Z" transform="translate(-178.07 0.248)"/><path class="a" d="M249.159,27.544h-6.617L241.116,30.8H240.2l5.294-11.4h.814L251.6,30.8h-.916Zm-.305-.611L245.9,20.316l-2.952,6.617Z" transform="translate(-177.897 0.248)"/><path class="a" d="M255.072,20.113H251V19.4h9.06v.713h-4.072V30.8h-.916Z" transform="translate(-177.702 0.248)"/><path class="a" d="M269.739,30.089V30.8H261.9V19.4h7.635v.713h-6.821v4.479h6.108V25.3h-6.108v4.683h7.024Z" transform="translate(-177.506 0.248)"/><path class="a" d="M272.5,19.4h4.479a6.283,6.283,0,0,1,3.156.713,5.154,5.154,0,0,1,2.138,2.036,5.566,5.566,0,0,1,.814,2.952,5.839,5.839,0,0,1-.814,2.952,5.154,5.154,0,0,1-2.138,2.036,6.283,6.283,0,0,1-3.156.713H272.5Zm4.479,10.689a6.061,6.061,0,0,0,2.749-.611,4.313,4.313,0,0,0,1.832-1.731,5.607,5.607,0,0,0,0-5.09,4.313,4.313,0,0,0-1.832-1.731,6.061,6.061,0,0,0-2.749-.611h-3.665v9.875h3.665Z" transform="translate(-177.314 0.248)"/><path class="a" d="M182.652,49.289a5.712,5.712,0,0,1-2.138-7.941,5.154,5.154,0,0,1,2.138-2.036,6.149,6.149,0,0,1,3.054-.713,5.179,5.179,0,0,1,2.24.407,3.592,3.592,0,0,1,1.731,1.222l-.509.509a4.6,4.6,0,0,0-3.461-1.323,5.94,5.94,0,0,0-2.647.611,4,4,0,0,0-1.832,1.832,5.628,5.628,0,0,0-.713,2.545,4.373,4.373,0,0,0,.713,2.545,4.535,4.535,0,0,0,1.832,1.832,5.636,5.636,0,0,0,2.647.611,4.6,4.6,0,0,0,3.461-1.323l.509.509a5.777,5.777,0,0,1-1.832,1.222,5.478,5.478,0,0,1-2.24.407A7.678,7.678,0,0,1,182.652,49.289Z" transform="translate(-178.987 0.594)"/><path class="a" d="M192.3,38.6h.814V49.289h6.515V50H192.2V38.6Z" transform="translate(-178.762 0.594)"/><path class="a" d="M203.252,49.289a5.712,5.712,0,0,1-2.138-7.941,5.154,5.154,0,0,1,2.138-2.036,6.9,6.9,0,0,1,6.108,0,5.712,5.712,0,0,1,2.138,7.941,5.154,5.154,0,0,1-2.138,2.036,6.9,6.9,0,0,1-6.108,0Zm5.6-.611a4,4,0,0,0,1.832-1.832A5.628,5.628,0,0,0,211.4,44.3a4.373,4.373,0,0,0-.713-2.545,4.535,4.535,0,0,0-1.832-1.832,5.519,5.519,0,0,0-2.545-.611,5.94,5.94,0,0,0-2.647.611,4,4,0,0,0-1.832,1.832,5.628,5.628,0,0,0-.713,2.545,4.373,4.373,0,0,0,.713,2.545,4.535,4.535,0,0,0,1.832,1.832,5.636,5.636,0,0,0,2.647.611A5.228,5.228,0,0,0,208.851,48.678Z" transform="translate(-178.616 0.594)"/><path class="a" d="M215.922,48.78a4.978,4.978,0,0,1-1.222-3.665V38.6h.814v6.515a4.672,4.672,0,0,0,.916,3.156,4.22,4.22,0,0,0,5.5,0,4.672,4.672,0,0,0,.916-3.156V38.6h.814v6.515a4.978,4.978,0,0,1-1.222,3.665A4.54,4.54,0,0,1,219.078,50,3.744,3.744,0,0,1,215.922,48.78Z" transform="translate(-178.356 0.594)"/><path class="a" d="M227.5,38.6h4.479a6.283,6.283,0,0,1,3.156.713,5.154,5.154,0,0,1,2.138,2.036,5.566,5.566,0,0,1,.814,2.952,5.839,5.839,0,0,1-.814,2.952,5.154,5.154,0,0,1-2.138,2.036,6.283,6.283,0,0,1-3.156.713H227.5Zm4.479,10.689a6.061,6.061,0,0,0,2.749-.611,4.313,4.313,0,0,0,1.832-1.731,5.608,5.608,0,0,0,0-5.09,4.313,4.313,0,0,0-1.832-1.731,6.061,6.061,0,0,0-2.749-.611h-3.665v9.875h3.665Z" transform="translate(-178.126 0.594)"/></g></svg>